<svg xmlns="http://www.w3.org/2000/svg" viewBox="0 0 420 520" role="img" aria-label="남성 안경사 3D 캐릭터">
  <defs>
    <radialGradient id="skin" cx="45%" cy="30%" r="70%">
      <stop offset="0" stop-color="#fff4ea"/>
      <stop offset="0.72" stop-color="#ffd9bf"/>
      <stop offset="1" stop-color="#ecb38b"/>
    </radialGradient>
    <linearGradient id="hair" x1="0" y1="0" x2="0" y2="1">
      <stop offset="0" stop-color="#3d4f6d"/>
      <stop offset="1" stop-color="#24364f"/>
    </linearGradient>
    <linearGradient id="coat" x1="0" y1="0" x2="0" y2="1">
      <stop offset="0" stop-color="#ffffff"/>
      <stop offset="1" stop-color="#deebff"/>
    </linearGradient>
    <filter id="shadow" x="-20%" y="-20%" width="160%" height="160%">
      <feDropShadow dx="0" dy="12" stdDeviation="9" flood-color="#6f9bd033"/>
    </filter>
  </defs>

  <ellipse cx="210" cy="482" rx="104" ry="22" fill="#7aa7da33"/>

  <g filter="url(#shadow)">
    <ellipse cx="210" cy="392" rx="112" ry="82" fill="url(#coat)"/>
    <rect x="188" y="326" width="44" height="88" rx="18" fill="#d7e7ff"/>
    <path d="M210 338l12 16-12 44-12-44z" fill="#2f69c3"/>

    <ellipse cx="210" cy="220" rx="96" ry="106" fill="url(#skin)"/>
    <ellipse cx="121" cy="236" rx="13" ry="22" fill="#edbf99"/>
    <ellipse cx="299" cy="236" rx="13" ry="22" fill="#edbf99"/>

    <!-- natural short male haircut -->
    <path d="M114 214c2-74 42-118 96-118s94 44 96 118c-16-20-39-31-96-31s-80 11-96 31z" fill="url(#hair)"/>
    <path d="M144 150c15-17 39-27 66-27s51 10 66 27" stroke="#5c7397" stroke-width="14" stroke-linecap="round" fill="none"/>
    <path d="M150 176c18-13 40-20 60-20s42 7 60 20" stroke="#2d415e" stroke-width="10" stroke-linecap="round" fill="none" opacity=".9"/>
    <path d="M140 198c12-9 26-14 40-16" stroke="#23354e" stroke-width="7" stroke-linecap="round" fill="none"/>
    <path d="M280 198c-12-9-26-14-40-16" stroke="#23354e" stroke-width="7" stroke-linecap="round" fill="none"/>

    <rect x="132" y="220" width="74" height="48" rx="19" fill="#ffffffd6" stroke="#2f4a6e" stroke-width="7"/>
    <rect x="214" y="220" width="74" height="48" rx="19" fill="#ffffffd6" stroke="#2f4a6e" stroke-width="7"/>
    <rect x="206" y="240" width="8" height="6" rx="2" fill="#2f4a6e"/>

    <ellipse cx="170" cy="242" rx="9.5" ry="8.5" fill="#26394f"/>
    <ellipse cx="250" cy="242" rx="9.5" ry="8.5" fill="#26394f"/>
    <circle cx="166" cy="238" r="1.8" fill="#fff"/>
    <circle cx="246" cy="238" r="1.8" fill="#fff"/>

    <path d="M204 272l-6 15h12z" fill="#e3b38e"/>
    <path d="M194 302c8 6 34 6 42 0" stroke="#8a5636" stroke-width="4.2" fill="none" stroke-linecap="round"/>

    <ellipse cx="170" cy="286" rx="10" ry="5" fill="#efb0b0" opacity=".33"/>
    <ellipse cx="250" cy="286" rx="10" ry="5" fill="#efb0b0" opacity=".33"/>
  </g>
</svg>
